<svg width="185" height="184" viewBox="0 0 185 184" fill="none" xmlns="http://www.w3.org/2000/svg">
<g clip-path="url(#clip0_97_264)" filter="url(#filter0_f_97_264)">
<path d="M69.4499 137.888L65.2549 127.551C60.4037 115.512 56.5306 105.281 53.6354 96.8576C50.7403 88.4341 48.7108 81.18 47.547 75.0952C46.4253 68.9253 46.1025 63.6268 46.5787 59.1998C47.1409 54.8152 48.3897 50.6639 50.3251 46.7457C54.28 38.739 60.2899 33.3898 68.3548 30.698C76.4197 28.0063 84.4913 28.6555 92.5696 32.6459C97.0384 34.8533 100.83 37.8916 103.943 41.7607C107.057 45.6297 109.233 49.9895 110.472 54.8399C115.077 52.8761 119.862 51.9549 124.827 52.0761C129.791 52.1974 134.508 53.3618 138.977 55.5692C147.055 59.5596 152.476 65.575 155.24 73.6156C158.003 81.6561 157.408 89.6797 153.453 97.6864C151.517 101.605 148.936 105.098 145.71 108.167C142.57 111.278 138.209 114.262 132.627 117.121C127.088 119.895 120.094 122.692 111.645 125.512C103.196 128.332 92.7171 131.473 80.2084 134.937L69.4499 137.888ZM76.2659 124.089C88.1344 120.839 98.0161 117.932 105.911 115.368C113.848 112.719 120.31 110.242 125.297 107.937C130.326 105.548 134.179 103.159 136.854 100.772C139.572 98.3002 141.667 95.5735 143.14 92.5923C145.664 87.4817 146.049 82.3738 144.295 77.2687C142.54 72.1636 139.085 68.3375 133.928 65.7905C129.889 63.7953 125.583 63.0986 121.009 63.7004C116.478 64.2169 112.705 65.903 109.691 68.7585L99.8934 63.9191C100.329 59.7901 99.3755 55.7693 97.0318 51.8566C94.7303 47.8588 91.5599 44.8624 87.5207 42.8672C82.3643 40.3201 77.2259 39.9012 72.1053 41.6102C66.9848 43.3193 63.1623 46.7291 60.6378 51.8398C59.1652 54.821 58.2732 58.1419 57.9617 61.8026C57.6923 65.3781 58.1368 69.8891 59.2952 75.3354C60.4957 80.6966 62.4558 87.3337 65.1755 95.2466C67.9372 103.074 71.634 112.688 76.2659 124.089Z" fill="#D27EB3"/>
</g>
<defs>
<filter id="filter0_f_97_264" x="-4" y="-4" width="192.34" height="191.784" filterUnits="userSpaceOnUse" color-interpolation-filters="sRGB">
<feFlood flood-opacity="0" result="BackgroundImageFix"/>
<feBlend mode="normal" in="SourceGraphic" in2="BackgroundImageFix" result="shape"/>
<feGaussianBlur stdDeviation="2" result="effect1_foregroundBlur_97_264"/>
</filter>
<clipPath id="clip0_97_264">
<rect width="138.027" height="136.803" fill="white" transform="translate(60.5864) rotate(26.2874)"/>
</clipPath>
</defs>
</svg>
